<?xml version="1.0" encoding="UTF-8" standalone="no"?>
<!-- Created with Inkscape (http://www.inkscape.org/) -->
<svg
   xmlns:svg="http://www.w3.org/2000/svg"
   xmlns="http://www.w3.org/2000/svg"
   version="1.0"
   width="452.48401"
   height="164.16"
   id="svg2">
  <defs
     id="defs4" />
  <g
     id="g12">
    <path
       d="M 0,164.16 C 150.824,164.16 301.656,164.16 452.484,164.16 L 452.484,0 C 301.656,0 150.824,0 0,0"
       id="path14"
       style="fill:#000000;fill-rule:evenodd;stroke:none" />
    <path
       d="M 120.961,82.078 C 120.961,70.6209 116.41,59.633 108.309,51.531 C 100.207,43.43 89.2188,38.879 77.7617,38.879 C 66.3047,38.879 55.3164,43.43 47.2148,51.531 C 39.1133,59.633 34.5586,70.6209 34.5586,82.078 C 34.5586,93.5389 39.1133,104.523 47.2148,112.625 C 55.3164,120.726 66.3047,125.281 77.7617,125.281 C 89.2188,125.281 100.207,120.726 108.309,112.625 C 116.41,104.523 120.961,93.5389 120.961,82.078"
       id="path16"
       style="fill:#fff5f1;fill-rule:evenodd;stroke:none" />
    <path
       d="M 65.8633,136.793 C 64.8438,136.551 63.8281,135.754 63.8281,134.601 C 63.8281,133.465 64.9258,132.308 66.7383,132.308 C 68.1719,132.308 69.168,132.726 70.207,133.605 L 70.5234,131.871 C 69.5273,131.371 68.5703,130.894 66.7578,130.894 C 63.9297,130.894 62.1367,132.867 62.1367,134.859 C 62.1367,135.355 62.2344,136.152 62.9141,137.07 C 63.8281,138.266 65.125,138.566 65.9414,138.766 C 66.2188,138.844 67.457,139.144 67.6133,139.183 C 68.5312,139.461 69.5273,140.34 69.5273,141.574 C 69.5273,142.891 68.3906,144.125 66.6172,144.125 C 65.0039,144.125 63.4922,143.508 62.2344,142.488 L 61.918,144.223 C 63.8711,145.437 65.6836,145.598 66.6172,145.598 C 69.3477,145.598 71.2227,143.566 71.2227,141.355 C 71.2227,139.101 69.3672,137.629 67.875,137.269 L 65.8633,136.793 z M 81.9453,136.312 L 80.293,136.312 L 80.293,142.07 C 80.293,143.664 79.0391,144.203 77.8438,144.203 C 76.4062,144.203 76.2695,143.746 76.2695,142.891 L 76.2695,136.312 L 74.6133,136.312 L 74.6133,142.988 C 74.6133,144.683 75.293,145.379 76.707,145.379 C 77.8633,145.379 79.4141,145.039 80.3516,144.203 L 80.3516,145.16 L 81.9453,145.16 L 81.9453,136.312 z M 91.9453,139.242 C 91.9453,137.769 91.5469,136.094 89.1367,136.094 C 87.5625,136.094 86.6055,137.012 86.1484,137.609 L 86.1484,136.195 L 84.6133,136.195 L 84.6133,145.16 L 86.2695,145.16 L 86.2695,140.297 C 86.2695,138.984 86.7852,137.391 88.3008,137.391 C 90.293,137.391 90.293,138.805 90.293,139.383 L 90.293,145.16 L 91.9453,145.16 L 91.9453,139.242 z"
       id="path18"
       style="fill:#ffffff;fill-rule:evenodd;stroke:none" />
    <path
       d="M 261.535,82.078 C 261.535,68.0194 255.949,54.539 246.012,44.598 C 236.07,34.656 222.59,29.074 208.527,29.074 C 194.469,29.074 180.988,34.656 171.047,44.598 C 161.109,54.539 155.523,68.0194 155.523,82.078 C 155.523,96.1366 161.109,109.621 171.047,119.558 C 180.988,129.5 194.469,135.086 208.527,135.086 C 222.59,135.086 236.07,129.5 246.012,119.558 C 255.949,109.621 261.535,96.1366 261.535,82.078"
       id="path20"
       style="fill:#fff5f1;fill-rule:evenodd;stroke:none" />
    <path
       d="M 161.504,150.457 C 161.504,147.328 159.652,146.351 158.176,146.351 C 155.445,146.351 152.816,149.203 152.816,152.012 C 152.816,153.863 154.012,155.379 156.043,155.379 C 157.301,155.379 158.734,154.922 160.25,153.707 C 160.508,154.762 161.164,155.379 162.062,155.379 C 163.117,155.379 163.734,154.285 163.734,153.965 C 163.734,153.824 163.617,153.766 163.496,153.766 C 163.355,153.766 163.297,153.824 163.238,153.965 C 162.879,154.941 162.16,154.941 162.121,154.941 C 161.504,154.941 161.504,153.387 161.504,152.91 C 161.504,152.488 161.504,152.449 161.703,152.211 C 163.578,149.859 163.996,147.547 163.996,147.527 C 163.996,147.488 163.977,147.328 163.758,147.328 C 163.559,147.328 163.559,147.391 163.457,147.746 C 163.098,149.004 162.441,150.516 161.504,151.691 L 161.504,150.457 z M 160.168,153.187 C 158.414,154.723 156.883,154.941 156.086,154.941 C 154.891,154.941 154.293,154.043 154.293,152.769 C 154.293,151.793 154.809,149.641 155.445,148.625 C 156.383,147.172 157.461,146.793 158.156,146.793 C 160.129,146.793 160.129,149.402 160.129,150.957 C 160.129,151.691 160.129,152.848 160.168,153.187 z"
       id="path22"
       style="fill:#ffffff;fill-rule:evenodd;stroke:none" />
    <path
       d="M 183.934,153.008 C 182.738,153.785 182.043,154.242 180.109,154.242 C 177.062,154.242 175.227,151.273 175.227,148.246 C 175.227,145.058 177.199,142.25 180.051,142.25 C 181.387,142.25 182.422,142.605 183.496,143.324 L 183.816,141.59 C 182.5,141.094 181.344,140.894 180.07,140.894 C 176.086,140.894 173.316,144.359 173.316,148.246 C 173.316,152.09 176.043,155.598 180.09,155.598 C 181.883,155.598 182.66,155.301 184.055,154.484 L 183.934,153.008 z M 193.508,150.797 C 193.508,150.18 193.488,148.664 192.711,147.469 C 191.875,146.215 190.598,145.976 189.844,145.976 C 187.531,145.976 185.699,148.105 185.699,150.656 C 185.699,153.289 187.648,155.379 190.141,155.379 C 191.098,155.379 192.254,155.14 193.41,154.402 L 193.289,153.027 C 192.035,153.926 190.859,154.086 190.16,154.086 C 188.508,154.086 187.23,152.629 187.172,150.797 L 193.508,150.797 z M 187.293,149.621 C 187.609,148.348 188.586,147.269 189.844,147.269 C 190.578,147.269 191.934,147.609 192.312,149.621 L 187.293,149.621 z M 202.945,149.242 C 202.945,147.769 202.547,146.094 200.137,146.094 C 198.562,146.094 197.605,147.012 197.148,147.609 L 197.148,146.195 L 195.613,146.195 L 195.613,155.16 L 197.27,155.16 L 197.27,150.297 C 197.27,148.984 197.785,147.391 199.301,147.391 C 201.293,147.391 201.293,148.805 201.293,149.383 L 201.293,155.16 L 202.945,155.16 L 202.945,149.242 z M 208.605,147.547 L 211.477,147.547 L 211.477,146.312 L 208.605,146.312 L 208.605,143.781 L 207.133,143.781 L 207.133,146.312 L 205.379,146.312 L 205.379,147.547 L 207.07,147.547 L 207.07,152.648 C 207.07,153.824 207.332,155.379 208.785,155.379 C 209.664,155.379 210.699,155.199 211.812,154.64 L 211.477,153.387 C 210.957,153.785 210.262,154.023 209.645,154.023 C 208.867,154.023 208.605,153.328 208.605,152.289 L 208.605,147.547 z M 220.211,149.402 C 220.211,147.43 218.754,145.976 216.781,145.976 C 215.488,145.976 214.531,146.312 213.574,146.851 L 213.695,148.266 C 214.691,147.527 215.668,147.23 216.762,147.23 C 217.879,147.23 218.555,148.125 218.555,149.422 L 218.555,150.258 C 215.129,150.34 212.875,151.234 212.875,152.848 C 212.875,153.785 213.496,155.379 215.227,155.379 C 215.625,155.379 217.359,155.34 218.613,154.402 L 218.613,155.16 L 220.211,155.16 L 220.211,149.402 z M 218.555,152.371 C 218.555,152.789 218.555,153.289 217.84,153.707 C 217.34,154.004 216.684,154.086 216.285,154.086 C 215.27,154.086 214.41,153.605 214.41,152.808 C 214.41,151.394 218.297,151.336 218.555,151.336 L 218.555,152.371 z M 230.945,146.312 L 229.293,146.312 L 229.293,152.07 C 229.293,153.664 228.039,154.203 226.844,154.203 C 225.406,154.203 225.27,153.746 225.27,152.891 L 225.27,146.312 L 223.613,146.312 L 223.613,152.988 C 223.613,154.683 224.293,155.379 225.707,155.379 C 226.863,155.379 228.414,155.039 229.352,154.203 L 229.352,155.16 L 230.945,155.16 L 230.945,146.312 z M 235.246,150.918 C 235.246,148.824 236.883,147.547 238.695,147.527 L 238.695,146.094 C 237.262,146.113 235.945,146.832 235.129,148.008 L 235.129,146.195 L 233.652,146.195 L 233.652,155.16 L 235.246,155.16 L 235.246,150.918 z M 242.387,141.531 L 240.473,141.531 L 240.473,143.445 L 242.387,143.445 L 242.387,141.531 z M 242.227,146.312 L 240.633,146.312 L 240.633,155.16 L 242.227,155.16 L 242.227,146.312 z"
       id="path24"
       style="fill:#ffffff;fill-rule:evenodd;stroke:none" />
    <path
       d="M 258.75,141.332 L 256.918,141.332 L 251.578,155.16 L 253.152,155.16 L 254.668,151.195 L 260.586,151.195 L 262.117,155.16 L 264.09,155.16 L 258.75,141.332 z M 257.613,142.805 L 260.105,150.019 L 255.145,150.019 L 257.613,142.805 z"
       id="path26"
       style="fill:#ffffff;fill-rule:evenodd;stroke:none" />
    <path
       d="M 370.836,82.078 C 370.836,72.1678 366.895,62.664 359.887,55.656 C 352.879,48.648 343.375,44.711 333.465,44.711 C 323.555,44.711 314.051,48.648 307.043,55.656 C 300.035,62.664 296.098,72.1678 296.098,82.078 C 296.098,91.992 300.035,101.496 307.043,108.504 C 314.051,115.512 323.555,119.449 333.465,119.449 C 343.375,119.449 352.879,115.512 359.887,108.504 C 366.895,101.496 370.836,91.992 370.836,82.078"
       id="path28"
       style="fill:#ffe0bb;fill-rule:evenodd;stroke:none" />
    <path
       d="M 286.504,134.457 C 286.504,131.328 284.652,130.351 283.176,130.351 C 280.445,130.351 277.816,133.203 277.816,136.012 C 277.816,137.863 279.012,139.379 281.043,139.379 C 282.301,139.379 283.734,138.922 285.25,137.707 C 285.508,138.762 286.164,139.379 287.062,139.379 C 288.117,139.379 288.734,138.285 288.734,137.965 C 288.734,137.824 288.617,137.766 288.496,137.766 C 288.355,137.766 288.297,137.824 288.238,137.965 C 287.879,138.941 287.16,138.941 287.121,138.941 C 286.504,138.941 286.504,137.387 286.504,136.91 C 286.504,136.488 286.504,136.449 286.703,136.211 C 288.578,133.859 288.996,131.547 288.996,131.527 C 288.996,131.488 288.977,131.328 288.758,131.328 C 288.559,131.328 288.559,131.391 288.457,131.746 C 288.098,133.004 287.441,134.516 286.504,135.691 L 286.504,134.457 z M 285.168,137.187 C 283.414,138.723 281.883,138.941 281.086,138.941 C 279.891,138.941 279.293,138.043 279.293,136.769 C 279.293,135.793 279.809,133.641 280.445,132.625 C 281.383,131.172 282.461,130.793 283.156,130.793 C 285.129,130.793 285.129,133.402 285.129,134.957 C 285.129,135.691 285.129,136.848 285.168,137.187 z"
       id="path30"
       style="fill:#ffffff;fill-rule:evenodd;stroke:none" />
    <path
       d="M 308.934,137.008 C 307.738,137.785 307.043,138.242 305.109,138.242 C 302.062,138.242 300.227,135.273 300.227,132.246 C 300.227,129.058 302.199,126.25 305.051,126.25 C 306.387,126.25 307.422,126.605 308.496,127.324 L 308.816,125.59 C 307.5,125.094 306.344,124.894 305.07,124.894 C 301.086,124.894 298.316,128.359 298.316,132.246 C 298.316,136.09 301.043,139.598 305.09,139.598 C 306.883,139.598 307.66,139.301 309.055,138.484 L 308.934,137.008 z M 318.508,134.797 C 318.508,134.18 318.488,132.664 317.711,131.469 C 316.875,130.215 315.598,129.976 314.844,129.976 C 312.531,129.976 310.699,132.105 310.699,134.656 C 310.699,137.289 312.648,139.379 315.141,139.379 C 316.098,139.379 317.254,139.141 318.41,138.402 L 318.289,137.027 C 317.035,137.926 315.859,138.086 315.16,138.086 C 313.508,138.086 312.23,136.629 312.172,134.797 L 318.508,134.797 z M 312.293,133.621 C 312.609,132.348 313.586,131.269 314.844,131.269 C 315.578,131.269 316.934,131.609 317.312,133.621 L 312.293,133.621 z M 327.945,133.242 C 327.945,131.769 327.547,130.094 325.137,130.094 C 323.562,130.094 322.605,131.012 322.148,131.609 L 322.148,130.195 L 320.613,130.195 L 320.613,139.16 L 322.27,139.16 L 322.27,134.297 C 322.27,132.984 322.785,131.391 324.301,131.391 C 326.293,131.391 326.293,132.805 326.293,133.383 L 326.293,139.16 L 327.945,139.16 L 327.945,133.242 z M 333.605,131.547 L 336.477,131.547 L 336.477,130.312 L 333.605,130.312 L 333.605,127.781 L 332.133,127.781 L 332.133,130.312 L 330.379,130.312 L 330.379,131.547 L 332.07,131.547 L 332.07,136.648 C 332.07,137.824 332.332,139.379 333.785,139.379 C 334.664,139.379 335.699,139.199 336.812,138.641 L 336.477,137.387 C 335.957,137.785 335.262,138.023 334.645,138.023 C 333.867,138.023 333.605,137.328 333.605,136.289 L 333.605,131.547 z M 345.211,133.402 C 345.211,131.43 343.754,129.976 341.781,129.976 C 340.488,129.976 339.531,130.312 338.574,130.851 L 338.695,132.266 C 339.691,131.527 340.668,131.23 341.762,131.23 C 342.879,131.23 343.555,132.125 343.555,133.422 L 343.555,134.258 C 340.129,134.34 337.875,135.234 337.875,136.848 C 337.875,137.785 338.496,139.379 340.227,139.379 C 340.625,139.379 342.359,139.34 343.613,138.402 L 343.613,139.16 L 345.211,139.16 L 345.211,133.402 z M 343.555,136.371 C 343.555,136.789 343.555,137.289 342.84,137.707 C 342.34,138.004 341.684,138.086 341.285,138.086 C 340.27,138.086 339.41,137.605 339.41,136.808 C 339.41,135.394 343.297,135.336 343.555,135.336 L 343.555,136.371 z M 355.945,130.312 L 354.293,130.312 L 354.293,136.07 C 354.293,137.664 353.039,138.203 351.844,138.203 C 350.406,138.203 350.27,137.746 350.27,136.891 L 350.27,130.312 L 348.613,130.312 L 348.613,136.988 C 348.613,138.683 349.293,139.379 350.707,139.379 C 351.863,139.379 353.414,139.039 354.352,138.203 L 354.352,139.16 L 355.945,139.16 L 355.945,130.312 z M 360.246,134.918 C 360.246,132.824 361.883,131.547 363.695,131.527 L 363.695,130.094 C 362.262,130.113 360.945,130.832 360.129,132.008 L 360.129,130.195 L 358.652,130.195 L 358.652,139.16 L 360.246,139.16 L 360.246,134.918 z M 367.387,125.531 L 365.473,125.531 L 365.473,127.445 L 367.387,127.445 L 367.387,125.531 z M 367.227,130.312 L 365.633,130.312 L 365.633,139.16 L 367.227,139.16 L 367.227,130.312 z"
       id="path32"
       style="fill:#ffffff;fill-rule:evenodd;stroke:none" />
    <path
       d="M 377.953,125.332 L 377.953,139.16 L 383.414,139.16 C 386.402,139.16 388.512,137.328 388.512,135.414 C 388.512,133.641 386.699,132.246 384.566,131.926 C 386.539,131.43 387.934,130.254 387.934,128.801 C 387.934,126.965 385.723,125.332 382.875,125.332 L 377.953,125.332 z M 379.746,131.328 L 379.746,126.508 L 382.297,126.508 C 384.328,126.508 386.262,127.445 386.262,128.84 C 386.262,129.996 384.848,131.328 382.078,131.328 L 379.746,131.328 z M 379.746,137.984 L 379.746,132.625 L 382.676,132.625 C 384.785,132.625 386.781,133.82 386.781,135.394 C 386.781,136.808 385.047,137.984 382.836,137.984 L 379.746,137.984 z"
       id="path34"
       style="fill:#ffffff;fill-rule:evenodd;stroke:none" />
    <path
       d="M 417.922,82.078 C 417.922,80.4178 417.262,78.8241 416.09,77.6483 C 414.914,76.4764 413.32,75.8162 411.656,75.8162 C 409.996,75.8162 408.402,76.4764 407.227,77.6483 C 406.055,78.8241 405.395,80.4178 405.395,82.078 C 405.395,83.742 406.055,85.3358 407.227,86.5077 C 408.402,87.6834 409.996,88.3436 411.656,88.3436 C 413.32,88.3436 414.914,87.6834 416.09,86.5077 C 417.262,85.3358 417.922,83.742 417.922,82.078"
       id="path36"
       style="fill:#ffbf68;fill-rule:evenodd;stroke:none" />
    <path
       d="M 384.094,102.48 C 386.902,102.48 388.934,100.547 388.934,98.3748 C 388.934,96.2655 386.922,94.3319 384.094,94.3319 L 378.934,94.3319 L 378.934,108.16 L 380.844,108.16 L 380.844,102.48 L 384.094,102.48 z M 383.613,95.5077 C 385.906,95.5077 387.203,96.7811 387.203,98.3748 C 387.203,99.9725 385.926,101.246 383.613,101.246 L 380.785,101.246 L 380.785,95.5077 L 383.613,95.5077 z M 393.246,103.918 C 393.246,101.824 394.883,100.547 396.695,100.527 L 396.695,99.0936 C 395.262,99.1131 393.945,99.8319 393.129,101.008 L 393.129,99.1952 L 391.652,99.1952 L 391.652,108.16 L 393.246,108.16 L 393.246,103.918 z M 406.625,103.777 C 406.625,101.168 404.633,98.9764 402.102,98.9764 C 399.629,98.9764 397.598,101.125 397.598,103.777 C 397.598,106.406 399.691,108.379 402.102,108.379 C 404.57,108.379 406.625,106.367 406.625,103.777 z M 402.121,107.023 C 400.586,107.023 399.25,105.828 399.25,103.578 C 399.25,101.246 400.746,100.269 402.102,100.269 C 403.535,100.269 404.969,101.285 404.969,103.578 C 404.969,105.891 403.574,107.023 402.121,107.023 z"
       id="path38"
       style="fill:#ffffff;fill-rule:evenodd;stroke:none" />
    <path
       d="M 411.34,103.598 L 415.086,99.3123 L 413.352,99.3123 L 410.664,102.562 L 407.852,99.3123 L 406.121,99.3123 L 409.965,103.598 L 406,108.16 L 407.734,108.16 L 410.664,104.433 L 413.672,108.16 L 415.426,108.16 L 411.34,103.598 z M 419.387,94.5311 L 417.473,94.5311 L 417.473,96.4452 L 419.387,96.4452 L 419.387,94.5311 z M 419.227,99.3123 L 417.633,99.3123 L 417.633,108.16 L 419.227,108.16 L 419.227,99.3123 z M 435.625,102.242 C 435.625,100.769 435.227,99.0936 432.816,99.0936 C 431.141,99.0936 430.207,100.109 429.727,100.726 C 429.586,100.328 429.168,99.0936 427.137,99.0936 C 425.562,99.0936 424.605,100.012 424.148,100.609 L 424.148,99.1952 L 422.613,99.1952 L 422.613,108.16 L 424.27,108.16 L 424.27,103.297 C 424.27,101.984 424.785,100.391 426.301,100.391 C 428.293,100.391 428.293,101.805 428.293,102.383 L 428.293,108.16 L 429.945,108.16 L 429.945,103.297 C 429.945,101.984 430.465,100.391 431.98,100.391 C 433.973,100.391 433.973,101.805 433.973,102.383 L 433.973,108.16 L 435.625,108.16 L 435.625,102.242 z M 445.211,102.402 C 445.211,100.43 443.754,98.9764 441.781,98.9764 C 440.488,98.9764 439.531,99.3123 438.574,99.8514 L 438.695,101.266 C 439.691,100.527 440.668,100.23 441.762,100.23 C 442.879,100.23 443.555,101.125 443.555,102.422 L 443.555,103.258 C 440.129,103.34 437.875,104.234 437.875,105.848 C 437.875,106.785 438.496,108.379 440.227,108.379 C 440.625,108.379 442.359,108.34 443.613,107.402 L 443.613,108.16 L 445.211,108.16 L 445.211,102.402 z M 443.555,105.371 C 443.555,105.789 443.555,106.289 442.84,106.707 C 442.34,107.004 441.684,107.086 441.285,107.086 C 440.27,107.086 439.41,106.605 439.41,105.808 C 439.41,104.394 443.297,104.336 443.555,104.336 L 443.555,105.371 z"
       id="path40"
       style="fill:#ffffff;fill-rule:evenodd;stroke:none" />
  </g>
</svg>
